<?xml version="1.0" encoding="UTF-8"?>
<!DOCTYPE svg PUBLIC "-//W3C//DTD SVG 1.1//EN" "http://www.w3.org/Graphics/SVG/1.1/DTD/svg11.dtd">
<svg version="1.1" xmlns="http://www.w3.org/2000/svg" xmlns:xlink="http://www.w3.org/1999/xlink" x="0" y="0" width="164" height="52" viewBox="0, 0, 164, 52">
  <g id="Layer_1">
    <path d="M41.357,46.13 L52.45,36.737 Q54.104,35.354 55.249,34.232 C55.931,33.579 56.553,32.867 57.107,32.102 C57.538,31.498 57.878,30.834 58.116,30.131 C58.337,29.466 58.448,28.769 58.444,28.068 C58.536,26.68 58,25.324 56.983,24.374 C55.958,23.492 54.64,23.027 53.289,23.071 C51.899,23.043 50.538,23.46 49.402,24.261 C48.049,25.294 46.851,26.515 45.844,27.887 L41.844,24.76 C42.56,23.748 43.344,22.787 44.19,21.882 C44.953,21.056 45.826,20.339 46.785,19.751 C47.744,19.165 48.782,18.719 49.867,18.426 C51.117,18.099 52.405,17.943 53.697,17.961 C55.157,17.944 56.61,18.178 57.991,18.652 C59.244,19.066 60.401,19.729 61.39,20.601 C62.326,21.443 63.071,22.474 63.577,23.627 C64.11,24.868 64.377,26.208 64.359,27.558 L64.359,27.649 C64.369,28.802 64.197,29.949 63.849,31.048 C63.493,32.109 62.973,33.107 62.308,34.006 C61.535,35.048 60.658,36.009 59.691,36.873 Q58.104,38.323 55.997,40.068 L49.379,45.586 L64.676,45.586 L64.676,50.549 L41.357,50.549 z" fill="#B3191D"/>
    <path d="M83.985,50.583 C81.653,50.615 79.34,50.171 77.186,49.28 C75.207,48.457 73.412,47.247 71.906,45.722 C70.444,44.205 69.29,42.42 68.506,40.465 C67.643,38.432 67.193,36.248 67.181,34.04 L67.181,33.949 C67.165,31.751 67.585,29.571 68.416,27.536 C69.222,25.564 70.408,23.77 71.906,22.255 C75.111,19.034 79.486,17.251 84.03,17.315 C86.362,17.286 88.675,17.734 90.829,18.63 C92.808,19.453 94.603,20.662 96.109,22.187 C97.569,23.705 98.724,25.49 99.508,27.445 C100.338,29.481 100.758,31.66 100.743,33.859 L100.743,33.949 C100.757,36.144 100.337,38.319 99.508,40.351 C98.703,42.324 97.517,44.118 96.018,45.632 C92.813,48.853 88.438,50.636 83.894,50.572 M83.985,45.382 C86.93,45.418 89.753,44.209 91.758,42.051 C92.734,41.004 93.503,39.781 94.024,38.448 C94.565,37.042 94.838,35.546 94.829,34.04 L94.829,33.949 C94.837,32.435 94.564,30.933 94.024,29.519 C93.514,28.173 92.744,26.941 91.758,25.893 C90.796,24.859 89.641,24.023 88.358,23.434 C84.22,21.566 79.352,22.536 76.245,25.847 C75.267,26.893 74.498,28.116 73.979,29.451 C73.439,30.857 73.166,32.352 73.175,33.859 L73.175,33.949 C73.168,35.463 73.441,36.965 73.979,38.38 C74.489,39.729 75.259,40.965 76.245,42.017 C77.208,43.05 78.363,43.885 79.645,44.476 C81.023,45.096 82.519,45.409 84.03,45.394" fill="#B3191D"/>
    <path d="M103.055,46.13 L114.125,36.737 Q115.78,35.354 116.924,34.232 C117.606,33.579 118.228,32.867 118.782,32.102 C119.219,31.498 119.567,30.834 119.814,30.131 C120.029,29.465 120.137,28.768 120.131,28.068 C120.217,26.676 119.672,25.32 118.647,24.374 C117.621,23.493 116.304,23.029 114.953,23.071 C113.563,23.043 112.201,23.459 111.066,24.261 C109.713,25.293 108.514,26.514 107.508,27.887 L103.508,24.76 C104.225,23.749 105.009,22.788 105.854,21.882 C106.618,21.057 107.491,20.34 108.449,19.751 C109.408,19.165 110.446,18.719 111.531,18.426 C112.78,18.099 114.069,17.943 115.36,17.961 C116.821,17.944 118.274,18.177 119.655,18.652 C120.909,19.065 122.065,19.728 123.054,20.601 C123.99,21.443 124.735,22.474 125.241,23.627 C125.776,24.868 126.042,26.207 126.023,27.558 L126.023,27.649 C126.072,29.945 125.35,32.191 123.972,34.029 C123.201,35.072 122.324,36.033 121.355,36.895 Q119.768,38.346 117.661,40.091 L111.043,45.609 L126.34,45.609 L126.34,50.572 L103.055,50.572 z" fill="#B3191D"/>
    <path d="M145.683,50.583 C143.351,50.615 141.038,50.171 138.884,49.28 C134.909,47.633 131.765,44.456 130.159,40.465 C129.324,38.43 128.9,36.25 128.913,34.051 L128.913,33.961 C128.9,31.761 129.323,29.581 130.159,27.547 C130.964,25.575 132.15,23.78 133.649,22.267 C135.176,20.734 136.984,19.511 138.975,18.664 C141.126,17.76 143.44,17.308 145.773,17.338 C148.105,17.31 150.418,17.757 152.572,18.652 C154.54,19.473 156.327,20.674 157.83,22.187 C159.29,23.705 160.444,25.49 161.229,27.445 C162.059,29.481 162.479,31.66 162.464,33.859 L162.464,33.949 C162.478,36.144 162.058,38.319 161.229,40.351 C160.453,42.321 159.298,44.119 157.83,45.643 C156.304,47.178 154.496,48.401 152.504,49.246 C150.355,50.157 148.04,50.613 145.705,50.583 M145.796,45.394 C147.297,45.411 148.785,45.106 150.158,44.498 C151.445,43.926 152.602,43.097 153.558,42.062 C154.534,41.015 155.303,39.792 155.824,38.459 C156.364,37.053 156.637,35.558 156.628,34.051 L156.628,33.961 C156.635,32.447 156.363,30.945 155.824,29.53 C155.312,28.185 154.542,26.953 153.558,25.904 C152.596,24.87 151.441,24.035 150.158,23.445 C146.004,21.553 141.106,22.525 137.989,25.859 C137.012,26.906 136.243,28.129 135.723,29.462 C135.186,30.869 134.917,32.364 134.929,33.87 L134.929,33.961 C134.918,35.474 135.187,36.976 135.723,38.391 C136.233,39.74 137.003,40.975 137.989,42.028 C138.951,43.061 140.106,43.896 141.388,44.487 C142.77,45.107 144.27,45.421 145.785,45.405" fill="#B3191D"/>
    <path d="M44.836,7.457 C44.643,7.468 44.45,7.468 44.258,7.457 L44.258,9.395 C44.638,9.424 45.017,9.477 45.391,9.553 L45.391,10.686 L41.357,10.686 L41.357,9.553 C41.731,9.476 42.109,9.423 42.49,9.395 L42.49,2.845 C42.11,2.815 41.731,2.762 41.357,2.687 L41.357,1.554 L42.399,1.554 C42.819,1.554 43.997,1.554 44.938,1.554 C47.147,1.554 48.337,2.585 48.337,4.352 C48.326,5.249 47.937,6.1 47.267,6.695 C46.596,7.291 45.705,7.576 44.813,7.48 M44.813,2.947 L44.212,2.947 L44.212,5.961 C44.382,5.973 44.553,5.973 44.722,5.961 C45.173,6.026 45.63,5.896 45.98,5.605 C46.33,5.313 46.54,4.887 46.558,4.432 C46.558,3.514 46.048,2.947 44.858,2.947 M53.243,10.777 C50.49,10.777 49.141,9.032 49.141,6.245 C49.029,5.003 49.448,3.771 50.295,2.855 C51.141,1.94 52.336,1.426 53.583,1.44 C55.985,1.44 57.685,2.891 57.685,5.973 C57.797,7.215 57.378,8.446 56.532,9.362 C55.685,10.278 54.49,10.792 53.243,10.777 M53.391,3.027 C52.144,3.027 51,4.012 51,6.041 C51,8.069 51.748,9.191 53.368,9.191 C54.501,9.191 55.793,8.284 55.793,6.12 C55.793,3.956 54.943,3.027 53.391,3.027 M63.589,10.63 L61.402,6.879 L61.164,6.879 L61.164,9.361 C61.44,9.385 61.713,9.434 61.98,9.508 L61.98,10.641 L58.263,10.641 L58.263,9.508 C58.637,9.431 59.015,9.378 59.396,9.349 L59.396,2.845 C59.016,2.815 58.637,2.762 58.263,2.687 L58.263,1.554 L59.305,1.554 C59.657,1.554 60.903,1.554 62.014,1.554 C64.008,1.554 65.288,2.245 65.288,4.092 C65.284,5.323 64.377,6.365 63.158,6.539 C63.317,6.743 63.475,6.981 63.611,7.196 L65.005,9.372 L65.889,9.519 L65.889,10.652 z M61.832,2.959 C61.61,2.944 61.386,2.944 61.164,2.959 L61.164,5.576 L61.776,5.576 C62.829,5.576 63.464,5.044 63.464,4.194 C63.464,3.344 62.943,2.902 61.832,2.902 M72.03,4.035 C71.974,3.627 71.894,3.265 71.872,2.902 L70.512,2.902 L70.512,9.259 C70.893,9.288 71.271,9.341 71.645,9.417 L71.645,10.55 L67.611,10.55 L67.611,9.417 C67.985,9.341 68.364,9.288 68.744,9.259 L68.744,3.015 L67.407,3.015 C67.407,3.355 67.317,3.718 67.249,4.148 L65.957,4.148 L65.957,1.588 L73.345,1.588 L73.345,4.126 z M82.126,2.845 L82.126,7.151 C82.126,9.542 80.778,10.777 78.398,10.777 C75.554,10.777 74.908,9.225 74.908,7.502 L74.908,2.845 C74.622,2.82 74.337,2.77 74.059,2.698 L74.059,1.565 L77.605,1.565 L77.605,2.698 C77.289,2.773 76.967,2.822 76.642,2.845 L76.642,7.378 C76.642,8.511 77.005,9.315 78.5,9.315 C79.996,9.315 80.404,8.749 80.404,7.219 L80.404,2.845 C80.079,2.824 79.757,2.775 79.441,2.698 L79.441,1.565 L82.942,1.565 L82.942,2.698 C82.671,2.77 82.394,2.819 82.115,2.845 M91.078,7.14 L91.078,10.21 C90.082,10.584 89.026,10.772 87.962,10.766 C86.745,10.887 85.537,10.463 84.662,9.608 C83.788,8.753 83.336,7.555 83.429,6.335 C83.363,5.004 83.874,3.708 84.83,2.78 C85.787,1.851 87.097,1.38 88.426,1.486 C89.276,1.491 90.121,1.605 90.942,1.825 L90.942,4.205 L89.616,4.205 C89.537,3.82 89.503,3.468 89.458,3.072 C89.087,2.977 88.706,2.931 88.324,2.936 C87.477,2.89 86.653,3.22 86.072,3.839 C85.491,4.457 85.212,5.3 85.31,6.143 C85.206,6.947 85.469,7.756 86.027,8.345 C86.586,8.934 87.379,9.241 88.188,9.179 C88.572,9.185 88.954,9.132 89.322,9.021 L89.322,7.14 C88.94,7.114 88.561,7.057 88.188,6.97 L88.188,5.837 L91.826,5.837 L91.826,6.97 C91.576,6.97 91.327,7.06 91.078,7.106 M97.355,10.596 L97.355,9.463 C97.67,9.396 97.987,9.347 98.307,9.315 L97.922,8.25 L94.636,8.25 L94.262,9.315 C94.582,9.347 94.899,9.396 95.214,9.463 L95.214,10.596 L91.814,10.596 L91.814,9.463 C92.042,9.39 92.278,9.344 92.517,9.327 L95.27,1.52 L97.401,1.52 L100.211,9.327 C100.45,9.344 100.685,9.389 100.913,9.463 L100.913,10.596 z M96.641,4.738 C96.478,4.274 96.342,3.801 96.234,3.321 L96.234,3.321 C96.119,3.824 95.975,4.319 95.803,4.806 L95.032,6.958 L97.457,6.958 z M101.276,10.607 L101.276,9.474 C101.65,9.397 102.028,9.344 102.409,9.315 L102.409,2.845 C102.028,2.815 101.65,2.762 101.276,2.687 L101.276,1.554 L105.344,1.554 L105.344,2.687 C104.97,2.762 104.591,2.815 104.211,2.845 L104.211,9.191 L105.933,9.191 C105.933,8.862 106.024,8.488 106.092,8.058 L107.372,8.058 L107.372,10.596 z" fill="#175F36"/>
    <path d="M14.31,1.825 C6.378,4.976 1.403,13.27 1.403,26.051 L1.403,45.45 C1.403,45.45 3.035,32.986 14.31,29.383 z" fill="#175F36"/>
    <path d="M18.151,31.309 C13.528,32.227 6.752,35.932 4.769,41.156 C14.695,29.111 34.944,40.748 35.85,18.086 C36.133,10.913 36.167,2.075 36.167,2.075 C30.037,2.369 23.978,3.513 18.162,5.474 z" fill="#B3191D"/>
    <path d="M16.87,37.847 C16.87,37.847 6.106,38.72 5.188,44.872 C4.463,49.677 16.87,49.801 16.87,49.801 z" fill="#175F36"/>
  </g>
</svg>
