<?xml version="1.0" encoding="UTF-8"?>
<!DOCTYPE svg PUBLIC "-//W3C//DTD SVG 1.1//EN" "http://www.w3.org/Graphics/SVG/1.1/DTD/svg11.dtd">
<svg version="1.1" xmlns="http://www.w3.org/2000/svg" xmlns:xlink="http://www.w3.org/1999/xlink" x="0" y="0" width="64" height="100" viewBox="0, 0, 64, 100">
  <g id="Background">
    <rect x="0" y="0" width="64" height="100" fill="#FFFFFF"/>
  </g>
  <g id="Layer_1">
    <g>
      <g>
        <path d="M48.797,65.084 C47.416,65.084 46.297,63.965 46.297,62.584 C46.297,61.203 47.416,60.084 48.797,60.084 C50.178,60.084 51.297,61.203 51.297,62.584 C51.297,63.965 50.178,65.084 48.797,65.084 z" fill="#FFFFFF"/>
        <path d="M48.797,65.084 C47.416,65.084 46.297,63.965 46.297,62.584 C46.297,61.203 47.416,60.084 48.797,60.084 C50.178,60.084 51.297,61.203 51.297,62.584 C51.297,63.965 50.178,65.084 48.797,65.084 z" fill-opacity="0" stroke="#DBDBDB" stroke-width="1"/>
      </g>
      <g>
        <path d="M48.797,65.084 C47.416,65.084 46.297,63.965 46.297,62.584 C46.297,61.203 47.416,60.084 48.797,60.084 C50.178,60.084 51.297,61.203 51.297,62.584 C51.297,63.965 50.178,65.084 48.797,65.084 z" fill="#FFFFFF"/>
        <path d="M48.797,65.084 C47.416,65.084 46.297,63.965 46.297,62.584 C46.297,61.203 47.416,60.084 48.797,60.084 C50.178,60.084 51.297,61.203 51.297,62.584 C51.297,63.965 50.178,65.084 48.797,65.084 z" fill-opacity="0" stroke="#DBDBDB" stroke-width="1.5"/>
      </g>
    </g>
    <path d="M49.186,76.706 C40.1,76.83 40.102,65.931 40.102,61.128 C40.102,56.326 43.995,52.433 48.797,52.433 C53.599,52.433 57.493,56.326 57.493,61.128 C57.493,65.931 57.493,76.592 49.186,76.706 z" fill-opacity="0" stroke="#FFECEC" stroke-width="4"/>
    <g>
      <g>
        <g>
          <path d="M45.606,51.93 C45.606,50.115 46.886,48.5 48.701,48.5 C50.517,48.5 51.989,49.972 51.989,51.787 z" fill="#FFECEC"/>
          <path d="M45.606,51.93 C45.606,50.115 46.886,48.5 48.701,48.5 C50.517,48.5 51.989,49.972 51.989,51.787 z" fill-opacity="0" stroke="#FFECEC" stroke-width="1"/>
        </g>
        <g>
          <path d="M45.606,51.93 C45.606,50.115 46.886,48.5 48.701,48.5 C50.517,48.5 51.989,49.972 51.989,51.787 z" fill="#FFECEC"/>
          <path d="M45.606,51.93 C45.606,50.115 46.886,48.5 48.701,48.5 C50.517,48.5 51.989,49.972 51.989,51.787 z" fill-opacity="0" stroke="#FFECEC" stroke-width="1.5" stroke-linecap="round" stroke-linejoin="round"/>
        </g>
      </g>
      <g>
        <g>
          <path d="M45.606,52.926 L51.989,52.783" fill="#FFECEC"/>
          <path d="M45.606,52.926 L51.989,52.783" fill-opacity="0" stroke="#FFECEC" stroke-width="1"/>
        </g>
        <g>
          <path d="M45.606,52.926 L51.989,52.783" fill="#FFECEC"/>
          <path d="M45.606,52.926 L51.989,52.783" fill-opacity="0" stroke="#FFECEC" stroke-width="1.5" stroke-linecap="round" stroke-linejoin="round"/>
        </g>
      </g>
    </g>
    <g>
      <g>
        <g>
          <path d="M58.186,58.878 C59.725,58.878 61.094,59.964 61.094,61.503 C61.094,63.042 59.846,64.29 58.307,64.29 z" fill="#FFECEC"/>
          <path d="M58.186,58.878 C59.725,58.878 61.094,59.964 61.094,61.503 C61.094,63.042 59.846,64.29 58.307,64.29 z" fill-opacity="0" stroke="#FFECEC" stroke-width="1"/>
        </g>
        <g>
          <path d="M58.186,58.878 C59.725,58.878 61.094,59.964 61.094,61.503 C61.094,63.042 59.846,64.29 58.307,64.29 z" fill="#FFECEC"/>
          <path d="M58.186,58.878 C59.725,58.878 61.094,59.964 61.094,61.503 C61.094,63.042 59.846,64.29 58.307,64.29 z" fill-opacity="0" stroke="#FFECEC" stroke-width="1.5" stroke-linecap="round" stroke-linejoin="round"/>
        </g>
      </g>
      <g>
        <g>
          <path d="M57.094,58.878 L57.216,64.29" fill="#FFECEC"/>
          <path d="M57.094,58.878 L57.216,64.29" fill-opacity="0" stroke="#FFECEC" stroke-width="1"/>
        </g>
        <g>
          <path d="M57.094,58.878 L57.216,64.29" fill="#FFECEC"/>
          <path d="M57.094,58.878 L57.216,64.29" fill-opacity="0" stroke="#FFECEC" stroke-width="1.5" stroke-linecap="round" stroke-linejoin="round"/>
        </g>
      </g>
    </g>
    <g>
      <g>
        <g>
          <path d="M39.408,64.29 C37.869,64.29 36.5,63.204 36.5,61.665 C36.5,60.126 37.748,58.878 39.287,58.878 z" fill="#FFECEC"/>
          <path d="M39.408,64.29 C37.869,64.29 36.5,63.204 36.5,61.665 C36.5,60.126 37.748,58.878 39.287,58.878 z" fill-opacity="0" stroke="#FFECEC" stroke-width="1"/>
        </g>
        <g>
          <path d="M39.408,64.29 C37.869,64.29 36.5,63.204 36.5,61.665 C36.5,60.126 37.748,58.878 39.287,58.878 z" fill="#FFECEC"/>
          <path d="M39.408,64.29 C37.869,64.29 36.5,63.204 36.5,61.665 C36.5,60.126 37.748,58.878 39.287,58.878 z" fill-opacity="0" stroke="#FFECEC" stroke-width="1.5" stroke-linecap="round" stroke-linejoin="round"/>
        </g>
      </g>
      <g>
        <g>
          <path d="M40.5,64.29 L40.378,58.878" fill="#FFECEC"/>
          <path d="M40.5,64.29 L40.378,58.878" fill-opacity="0" stroke="#FFECEC" stroke-width="1"/>
        </g>
        <g>
          <path d="M40.5,64.29 L40.378,58.878" fill="#FFECEC"/>
          <path d="M40.5,64.29 L40.378,58.878" fill-opacity="0" stroke="#FFECEC" stroke-width="1.5" stroke-linecap="round" stroke-linejoin="round"/>
        </g>
      </g>
    </g>
    <path d="M46.492,76.707 L46.492,83.412" fill-opacity="0" stroke="#FFECEC" stroke-width="1.5"/>
    <path d="M51.102,76.707 L51.102,83.412" fill-opacity="0" stroke="#FFECEC" stroke-width="1.5"/>
    <g>
      <g>
        <path d="M46.492,85.843 C45.664,85.843 44.992,85.171 44.992,84.343 C44.992,83.514 45.664,82.843 46.492,82.843 C47.321,82.843 47.992,83.514 47.992,84.343 C47.992,85.171 47.321,85.843 46.492,85.843 z" fill="#FFFFFF"/>
        <path d="M46.492,85.843 C45.664,85.843 44.992,85.171 44.992,84.343 C44.992,83.514 45.664,82.843 46.492,82.843 C47.321,82.843 47.992,83.514 47.992,84.343 C47.992,85.171 47.321,85.843 46.492,85.843 z" fill-opacity="0" stroke="#FFECEC" stroke-width="1"/>
      </g>
      <path d="M46.492,85.843 C45.664,85.843 44.992,85.171 44.992,84.343 C44.992,83.514 45.664,82.843 46.492,82.843 C47.321,82.843 47.992,83.514 47.992,84.343 C47.992,85.171 47.321,85.843 46.492,85.843 z" fill-opacity="0" stroke="#FFECEC" stroke-width="1"/>
    </g>
    <g>
      <g>
        <path d="M51.169,85.843 C50.34,85.843 49.669,85.171 49.669,84.343 C49.669,83.514 50.34,82.843 51.169,82.843 C51.997,82.843 52.669,83.514 52.669,84.343 C52.669,85.171 51.997,85.843 51.169,85.843 z" fill="#FFFFFF"/>
        <path d="M51.169,85.843 C50.34,85.843 49.669,85.171 49.669,84.343 C49.669,83.514 50.34,82.843 51.169,82.843 C51.997,82.843 52.669,83.514 52.669,84.343 C52.669,85.171 51.997,85.843 51.169,85.843 z" fill-opacity="0" stroke="#FFECEC" stroke-width="1"/>
      </g>
      <path d="M51.169,85.843 C50.34,85.843 49.669,85.171 49.669,84.343 C49.669,83.514 50.34,82.843 51.169,82.843 C51.997,82.843 52.669,83.514 52.669,84.343 C52.669,85.171 51.997,85.843 51.169,85.843 z" fill-opacity="0" stroke="#FFECEC" stroke-width="1"/>
    </g>
    <path d="M39.742,86.664 L39.742,79.96 L44.103,79.96 L44.103,75.691" fill-opacity="0" stroke="#FFECEC" stroke-width="1.5" stroke-linejoin="round"/>
    <g>
      <g>
        <path d="M39.742,89.095 C38.913,89.095 38.242,88.424 38.242,87.595 C38.242,86.767 38.913,86.095 39.742,86.095 C40.57,86.095 41.242,86.767 41.242,87.595 C41.242,88.424 40.57,89.095 39.742,89.095 z" fill="#FFFFFF"/>
        <path d="M39.742,89.095 C38.913,89.095 38.242,88.424 38.242,87.595 C38.242,86.767 38.913,86.095 39.742,86.095 C40.57,86.095 41.242,86.767 41.242,87.595 C41.242,88.424 40.57,89.095 39.742,89.095 z" fill-opacity="0" stroke="#FFECEC" stroke-width="1"/>
      </g>
      <path d="M39.742,89.095 C38.913,89.095 38.242,88.424 38.242,87.595 C38.242,86.767 38.913,86.095 39.742,86.095 C40.57,86.095 41.242,86.767 41.242,87.595 C41.242,88.424 40.57,89.095 39.742,89.095 z" fill-opacity="0" stroke="#FFECEC" stroke-width="1"/>
    </g>
    <path d="M58.287,86.664 L58.287,79.96 L53.925,79.96 L53.925,75.691" fill-opacity="0" stroke="#FFECEC" stroke-width="1.5" stroke-linejoin="round"/>
    <g>
      <g>
        <path d="M58.287,89.095 C59.115,89.095 59.787,88.424 59.787,87.595 C59.787,86.767 59.115,86.095 58.287,86.095 C57.458,86.095 56.787,86.767 56.787,87.595 C56.787,88.424 57.458,89.095 58.287,89.095 z" fill="#FFFFFF"/>
        <path d="M58.287,89.095 C59.115,89.095 59.787,88.424 59.787,87.595 C59.787,86.767 59.115,86.095 58.287,86.095 C57.458,86.095 56.787,86.767 56.787,87.595 C56.787,88.424 57.458,89.095 58.287,89.095 z" fill-opacity="0" stroke="#FFECEC" stroke-width="1"/>
      </g>
      <path d="M58.287,89.095 C59.115,89.095 59.787,88.424 59.787,87.595 C59.787,86.767 59.115,86.095 58.287,86.095 C57.458,86.095 56.787,86.767 56.787,87.595 C56.787,88.424 57.458,89.095 58.287,89.095 z" fill-opacity="0" stroke="#FFECEC" stroke-width="1"/>
    </g>
  </g>
</svg>
